<svg width="368" height="298" viewBox="0 0 368 298" fill="none" xmlns="http://www.w3.org/2000/svg">
<path d="M193.371 5.32302V14.5455C119.109 14.5455 58.9369 74.7414 58.9076 148.979H49.6851C49.2423 148.977 48.8034 149.063 48.3944 149.233C47.9853 149.402 47.6143 149.652 47.3031 149.967C46.9919 150.282 46.7468 150.656 46.5822 151.067C46.4177 151.478 46.3369 151.918 46.3448 152.361C48.1059 230.878 111.46 294.227 189.989 296C190.432 296.006 190.871 295.924 191.281 295.759C191.692 295.594 192.065 295.349 192.38 295.038C192.694 294.727 192.944 294.356 193.114 293.948C193.284 293.54 193.372 293.102 193.371 292.659V283.46C267.627 283.46 327.805 223.259 327.805 149.026H337.021C337.465 149.028 337.903 148.941 338.313 148.771C338.722 148.601 339.093 148.351 339.404 148.035C339.715 147.72 339.96 147.345 340.124 146.934C340.289 146.522 340.37 146.082 340.362 145.639C338.601 67.1274 275.264 3.77321 196.735 2.00033C196.292 1.9941 195.852 2.07609 195.441 2.24153C195.029 2.40697 194.655 2.65256 194.34 2.96398C194.025 3.2754 193.775 3.64643 193.604 4.05547C193.434 4.46451 193.347 4.90337 193.347 5.3465" fill="#B880FF"/>
<path d="M193.371 5.32302V14.5455C119.109 14.5455 58.9369 74.7414 58.9076 148.979H49.6851C49.2423 148.977 48.8034 149.063 48.3944 149.233C47.9853 149.402 47.6143 149.652 47.3031 149.967C46.9919 150.282 46.7468 150.656 46.5822 151.067C46.4177 151.478 46.3369 151.918 46.3448 152.361C48.1059 230.878 111.46 294.227 189.989 296C190.432 296.006 190.871 295.924 191.281 295.759C191.692 295.594 192.065 295.349 192.38 295.038C192.694 294.727 192.944 294.356 193.114 293.948C193.284 293.54 193.372 293.102 193.371 292.659V283.46C267.627 283.46 327.805 223.259 327.805 149.026H337.021C337.465 149.028 337.903 148.941 338.313 148.771C338.722 148.601 339.093 148.351 339.404 148.035C339.715 147.72 339.96 147.345 340.124 146.934C340.289 146.522 340.37 146.082 340.362 145.639C338.601 67.1274 275.264 3.77321 196.735 2.00033C196.292 1.9941 195.852 2.07609 195.441 2.24153C195.029 2.40697 194.655 2.65256 194.34 2.96398C194.025 3.2754 193.775 3.64643 193.604 4.05547C193.434 4.46451 193.347 4.90337 193.347 5.3465" stroke="white" stroke-width="2" stroke-linejoin="round"/>
<path d="M98.0934 40.2642L270.298 54.9814C273.709 55.275 277.078 59.1847 277.243 63.8165L282.086 201.092L94.1425 214.835L82.4016 48.8703C82.2985 47.4356 82.7169 46.012 83.5798 44.8611C84.4426 43.7103 85.6919 42.9097 87.098 42.6065L98.0934 40.2642Z" fill="white" stroke="black" stroke-width="1.2" stroke-linecap="round" stroke-linejoin="round"/>
<path d="M102.074 40.5988L98.0934 40.2583L87.1097 42.6065C85.7036 42.9097 84.4543 43.7103 83.5915 44.8612C82.7286 46.012 82.3103 47.4356 82.4133 48.8703L83.8457 69.2291L91.9587 67.5091L102.901 44.3031L102.074 40.5988Z" fill="black"/>
<path d="M121.675 285.227L116.867 284.928C116.069 284.882 115.316 284.547 114.748 283.985C114.181 283.423 113.838 282.672 113.785 281.875L106.194 171.874L140.983 170.7L121.675 285.227Z" fill="white" stroke="black" stroke-width="1.2" stroke-linecap="round" stroke-linejoin="round"/>
<path d="M43.6445 238.592L37.4687 237.847C36.7217 237.752 36.0299 237.404 35.5094 236.86C34.9888 236.316 34.6712 235.609 34.6098 234.859L25.0116 119.363C24.9444 118.565 25.171 117.77 25.6489 117.128C26.1268 116.486 26.8229 116.04 27.6063 115.876L33.2948 114.702L43.6445 238.592Z" fill="white" stroke="black" stroke-width="1.2" stroke-linecap="round" stroke-linejoin="round"/>
<path d="M290.486 201.884L102.543 215.633L90.761 49.7389C90.3618 44.1032 94.0485 39.8706 98.9797 40.2933L279.203 55.6915C282.62 55.985 285.496 59.9828 285.661 64.6146L290.486 201.884Z" fill="white" stroke="black" stroke-width="1.2" stroke-linecap="round" stroke-linejoin="round"/>
<path d="M286.142 78.7977L91.9821 66.957L90.761 49.7389C90.3618 44.1032 94.0485 39.8706 98.9797 40.2933L279.203 55.6915C282.62 55.985 285.496 59.9828 285.661 64.6146L286.142 78.7977Z" fill="black"/>
<path d="M114.607 55.0048C114.795 57.8931 112.934 60.0945 110.427 59.9243C107.92 59.754 105.731 57.2532 105.507 54.3415C105.284 51.4297 107.198 49.2165 109.717 49.4102C112.235 49.604 114.413 52.1107 114.607 55.0048Z" fill="white" stroke="black" stroke-width="1.2" stroke-linecap="round" stroke-linejoin="round"/>
<path d="M129.453 56.091C129.635 58.9441 127.815 61.1162 125.379 60.9459C122.943 60.7757 120.788 58.3159 120.601 55.4453C120.413 52.5746 122.256 50.3908 124.71 50.5786C127.164 50.7665 129.271 53.238 129.453 56.091Z" fill="#B880FF" stroke="black" stroke-width="1.2" stroke-linecap="round" stroke-linejoin="round"/>
<path d="M143.9 57.1475C144.076 59.9594 142.298 62.1022 139.926 61.9437C137.554 61.7852 135.464 59.3548 135.288 56.5193C135.112 53.6839 136.903 51.5353 139.292 51.7173C141.681 51.8993 143.724 54.3355 143.9 57.1475Z" fill="#B880FF" stroke="black" stroke-width="1.2" stroke-linecap="round" stroke-linejoin="round"/>
<path d="M148.262 110.98L110.451 110.123L108.666 83.9404L146.713 85.7074L148.262 110.98Z" fill="black" stroke="black" stroke-width="1.2" stroke-linecap="round" stroke-linejoin="round"/>
<path d="M183.544 111.778L148.262 110.98L146.712 85.7075L182.211 87.3571L183.544 111.778Z" fill="white" stroke="black" stroke-width="1.2" stroke-linecap="round" stroke-linejoin="round"/>
<path d="M216.554 112.524L183.544 111.778L182.211 87.3569L215.409 88.9009L216.554 112.524Z" fill="#B880FF" stroke="black" stroke-width="1.2" stroke-linecap="round" stroke-linejoin="round"/>
<path d="M247.497 113.222L216.553 112.524L215.409 88.9009L246.522 90.345L247.497 113.222Z" fill="white" stroke="black" stroke-width="1.2" stroke-linecap="round" stroke-linejoin="round"/>
<path d="M276.568 113.88L247.497 113.222L246.522 90.3452L275.74 91.7013L276.568 113.88Z" fill="#B880FF" stroke="black" stroke-width="1.2" stroke-linecap="round" stroke-linejoin="round"/>
<path d="M149.789 136.011L112.218 136.052L110.451 110.123L148.262 110.98L149.789 136.011Z" fill="#B880FF" stroke="black" stroke-width="1.2" stroke-linecap="round" stroke-linejoin="round"/>
<path d="M184.865 135.976L149.789 136.012L148.262 110.98L183.544 111.778L184.865 135.976Z" fill="black" stroke="black" stroke-width="1.2" stroke-linecap="round" stroke-linejoin="round"/>
<path d="M248.472 135.912L217.693 135.941L216.554 112.524L247.497 113.223L248.472 135.912Z" fill="#B880FF" stroke="black" stroke-width="1.2" stroke-linecap="round" stroke-linejoin="round"/>
<path d="M217.692 135.941L184.865 135.976L183.544 111.778L216.554 112.524L217.692 135.941Z" fill="white" stroke="black" stroke-width="1.2" stroke-linecap="round" stroke-linejoin="round"/>
<path d="M277.389 135.882L248.471 135.912L247.497 113.222L276.567 113.88L277.389 135.882Z" fill="black" stroke="black" stroke-width="1.2" stroke-linecap="round" stroke-linejoin="round"/>
<path d="M151.309 160.814L113.967 161.736L112.218 136.053L149.789 136.012L151.309 160.814Z" fill="white" stroke="black" stroke-width="1.2" stroke-linecap="round" stroke-linejoin="round"/>
<path d="M186.174 159.963L151.309 160.815L149.789 136.012L184.865 135.977L186.174 159.963Z" fill="#B880FF" stroke="black" stroke-width="1.2" stroke-linecap="round" stroke-linejoin="round"/>
<path d="M218.814 159.159L186.174 159.963L184.865 135.977L217.692 135.941L218.814 159.159Z" fill="#B880FF" stroke="black" stroke-width="1.2" stroke-linecap="round" stroke-linejoin="round"/>
<path d="M249.428 158.408L218.814 159.159L217.692 135.941L248.471 135.912L249.428 158.408Z" fill="white" stroke="black" stroke-width="1.2" stroke-linecap="round" stroke-linejoin="round"/>
<path d="M278.205 157.703L249.428 158.408L248.471 135.912L277.389 135.883L278.205 157.703Z" fill="#B880FF" stroke="black" stroke-width="1.2" stroke-linecap="round" stroke-linejoin="round"/>
<path d="M152.812 185.482L115.71 187.267L113.973 161.83L151.309 160.908L152.812 185.482Z" fill="black" stroke="black" stroke-width="1.2" stroke-linecap="round" stroke-linejoin="round"/>
<path d="M187.477 183.82L152.812 185.482L151.309 160.908L186.18 160.051L187.477 183.82Z" fill="white" stroke="black" stroke-width="1.2" stroke-linecap="round" stroke-linejoin="round"/>
<path d="M219.935 182.259L187.477 183.821L186.18 160.051L218.82 159.247L219.935 182.259Z" fill="#B880FF" stroke="black" stroke-width="1.2" stroke-linecap="round" stroke-linejoin="round"/>
<path d="M250.385 180.803L219.935 182.259L218.819 159.247L249.434 158.495L250.385 180.803Z" fill="black" stroke="black" stroke-width="1.2" stroke-linecap="round" stroke-linejoin="round"/>
<path d="M279.015 179.424L250.385 180.803L249.434 158.495L278.205 157.785L279.015 179.424Z" fill="white" stroke="black" stroke-width="1.2" stroke-linecap="round" stroke-linejoin="round"/>
<path d="M207.02 273.515L122.591 285.227C122.14 285.289 121.682 285.258 121.244 285.136C120.806 285.013 120.398 284.802 120.045 284.515C119.692 284.228 119.402 283.872 119.192 283.468C118.983 283.064 118.859 282.622 118.828 282.168L111.208 171.874L201.431 168.827C202.301 168.798 203.147 169.112 203.788 169.7C204.429 170.288 204.814 171.105 204.86 171.974L209.879 270.058C209.922 270.887 209.652 271.703 209.123 272.343C208.593 272.983 207.843 273.402 207.02 273.515Z" fill="white" stroke="black" stroke-width="1.2" stroke-linecap="round" stroke-linejoin="round"/>
<path d="M192.103 235.686L133.78 241.481C133.338 241.525 132.891 241.48 132.466 241.347C132.042 241.215 131.648 240.999 131.309 240.711C130.97 240.424 130.692 240.071 130.492 239.673C130.292 239.276 130.175 238.842 130.146 238.399L126.941 189.909L189.867 186.703C190.744 186.66 191.603 186.966 192.256 187.555C192.908 188.143 193.301 188.967 193.348 189.844L195.584 231.63C195.638 232.624 195.305 233.601 194.657 234.356C194.009 235.112 193.094 235.588 192.103 235.686Z" fill="#B880FF" stroke="#B880FF" stroke-width="1.2" stroke-linecap="round" stroke-linejoin="round"/>
<path d="M145.632 264.217L131.96 265.884L130.921 250.151L144.646 248.684L145.632 264.217Z" stroke="#B880FF" stroke-width="1.2" stroke-linecap="round" stroke-linejoin="round"/>
<path d="M158.958 262.596L145.632 264.217L144.646 248.683L158.019 247.251L158.958 262.596Z" stroke="#B880FF" stroke-width="1.2" stroke-linecap="round" stroke-linejoin="round"/>
<path d="M171.95 261.012L158.958 262.597L158.019 247.252L171.063 245.854L171.95 261.012Z" stroke="#B880FF" stroke-width="1.2" stroke-linecap="round" stroke-linejoin="round"/>
<path d="M184.63 259.468L171.949 261.012L171.063 245.854L183.79 244.486L184.63 259.468Z" stroke="#B880FF" stroke-width="1.2" stroke-linecap="round" stroke-linejoin="round"/>
<path d="M196.999 257.959L184.63 259.467L183.791 244.486L196.201 243.159L196.999 257.959Z" stroke="#B880FF" stroke-width="1.2" stroke-linecap="round" stroke-linejoin="round"/>
<path d="M126.941 189.908L158.33 217.253C158.954 217.795 159.679 218.209 160.463 218.471C161.247 218.733 162.075 218.837 162.9 218.778C163.725 218.72 164.53 218.498 165.269 218.128C166.008 217.757 166.666 217.244 167.207 216.619L193.371 186.415" stroke="white" stroke-width="1.2" stroke-linecap="round" stroke-linejoin="round"/>
<path d="M156.634 215.773L130.375 241.821" stroke="white" stroke-width="1.2" stroke-linecap="round" stroke-linejoin="round"/>
<path d="M195.59 235.175L168.738 214.84" stroke="white" stroke-width="1.2" stroke-linecap="round" stroke-linejoin="round"/>
<path d="M141.482 229.851L43.2981 238.604C42.8626 238.643 42.4239 238.595 42.007 238.463C41.5901 238.332 41.2034 238.119 40.8689 237.838C40.5345 237.556 40.259 237.211 40.0583 236.823C39.8576 236.435 39.7357 236.01 39.6995 235.575L29.931 118.271C29.8923 117.809 29.951 117.344 30.1033 116.906C30.2556 116.467 30.4981 116.066 30.8151 115.728C31.132 115.389 31.5165 115.121 31.9436 114.94C32.3708 114.759 32.8311 114.67 33.2948 114.678L134.496 116.439C135.33 116.455 136.127 116.784 136.729 117.361C137.332 117.937 137.695 118.719 137.748 119.551L144.493 226.352C144.546 227.213 144.26 228.06 143.698 228.713C143.136 229.367 142.34 229.775 141.482 229.851Z" fill="white" stroke="black" stroke-width="1.2" stroke-linecap="round" stroke-linejoin="round"/>
<path d="M54.8218 103.836C54.9862 105.937 53.5596 107.604 51.6224 107.557C49.6851 107.51 47.9651 105.761 47.7948 103.648C47.6246 101.534 49.0746 99.8613 51.0177 99.92C52.9608 99.9787 54.6574 101.734 54.8218 103.836Z" stroke="black" stroke-width="1.2" stroke-linecap="round" stroke-linejoin="round"/>
<path d="M41.1493 99.8613L34.9912 106.929" stroke="black" stroke-width="1.2" stroke-linecap="round" stroke-linejoin="round"/>
<path d="M41.7365 107.088L34.3926 99.6558" stroke="black" stroke-width="1.2" stroke-linecap="round" stroke-linejoin="round"/>
<path d="M258.046 190.073L253.062 189.421C252.295 189.32 251.588 188.951 251.066 188.38C250.545 187.808 250.241 187.071 250.209 186.298L246.575 99.0689C246.542 98.2583 246.809 97.4639 247.326 96.8386C247.843 96.2132 248.573 95.8012 249.375 95.6816L254.5 94.9243L258.046 190.073Z" fill="white" stroke="black" stroke-width="1.2" stroke-linecap="round" stroke-linejoin="round"/>
<path d="M124.094 188.693L55.8845 192.057C55.0237 192.099 54.1801 191.805 53.5325 191.236C52.885 190.668 52.4842 189.869 52.415 189.01L48.4701 139.81C48.428 139.277 48.4964 138.742 48.6711 138.237C48.8458 137.733 49.1229 137.269 49.4851 136.877C49.8472 136.484 50.2867 136.171 50.7757 135.957C51.2648 135.742 51.7929 135.631 52.327 135.63L121.417 135.583C122.259 135.583 123.071 135.903 123.687 136.478C124.303 137.054 124.677 137.842 124.733 138.683L127.751 184.572C127.786 185.084 127.718 185.597 127.553 186.083C127.387 186.568 127.127 187.016 126.786 187.399C126.446 187.783 126.032 188.095 125.57 188.317C125.108 188.539 124.606 188.667 124.094 188.693Z" fill="#B880FF" stroke="#B880FF" stroke-width="1.2" stroke-linecap="round" stroke-linejoin="round"/>
<path d="M110.521 149.256C110.674 151.457 109.224 153.259 107.281 153.289C105.337 153.318 103.612 151.527 103.453 149.338C103.295 147.148 104.768 145.311 106.723 145.299C108.678 145.287 110.374 147.06 110.521 149.256Z" stroke="white" stroke-width="1.2" stroke-miterlimit="10"/>
<path d="M105.742 181.907L82.771 152.607C82.2057 151.888 81.471 151.319 80.6325 150.952C79.7939 150.586 78.8776 150.433 77.9654 150.506C77.0531 150.58 76.1734 150.879 75.4047 151.376C74.636 151.872 74.0023 152.552 73.5602 153.353L56.6943 184.003" stroke="white" stroke-width="1.2" stroke-linecap="round" stroke-linejoin="round"/>
<path d="M123.266 181.161L111.12 166.115C110.714 165.609 110.195 165.207 109.604 164.941C109.013 164.675 108.367 164.552 107.72 164.583C107.072 164.614 106.441 164.797 105.878 165.119C105.315 165.44 104.836 165.89 104.48 166.432L99.5728 173.858" stroke="white" stroke-width="1.2" stroke-linecap="round" stroke-linejoin="round"/>
<path d="M70.5666 217.311L54.7751 218.456L53.4014 201.32L69.2634 200.404L70.5666 217.311Z" stroke="#B880FF" stroke-width="1.2" stroke-linecap="round" stroke-linejoin="round"/>
<path d="M85.9353 216.197L70.5664 217.312L69.2632 200.405L84.6967 199.519L85.9353 216.197Z" stroke="#B880FF" stroke-width="1.2" stroke-linecap="round" stroke-linejoin="round"/>
<path d="M100.893 215.11L85.9354 216.196L84.6968 199.518L99.7193 198.649L100.893 215.11Z" stroke="#B880FF" stroke-width="1.2" stroke-linecap="round" stroke-linejoin="round"/>
<path d="M115.458 214.053L100.893 215.11L99.7192 198.649L114.343 197.81L115.458 214.053Z" stroke="#B880FF" stroke-width="1.2" stroke-linecap="round" stroke-linejoin="round"/>
<path d="M129.641 213.026L115.458 214.054L114.343 197.81L128.585 196.988L129.641 213.026Z" stroke="#B880FF" stroke-width="1.2" stroke-linecap="round" stroke-linejoin="round"/>
<path d="M339.211 185.417L258.786 190.114C258.345 190.142 257.903 190.083 257.486 189.938C257.069 189.793 256.685 189.566 256.357 189.271C256.028 188.975 255.763 188.617 255.575 188.218C255.387 187.818 255.281 187.385 255.263 186.944L251.571 98.3583C251.552 97.8994 251.628 97.4415 251.795 97.0136C251.962 96.5858 252.216 96.1973 252.541 95.8728C252.866 95.5483 253.255 95.2948 253.683 95.1285C254.112 94.9621 254.57 94.8865 255.028 94.9064L337.139 98.3641C337.979 98.3982 338.775 98.7509 339.365 99.3506C339.955 99.9503 340.295 100.752 340.315 101.593L342.346 182.018C342.369 182.882 342.054 183.72 341.468 184.354C340.883 184.989 340.073 185.37 339.211 185.417Z" fill="white" stroke="black" stroke-width="1.2" stroke-linecap="round" stroke-linejoin="round"/>
<path d="M327.159 152.654L270.879 153.793C270.01 153.811 269.169 153.487 268.537 152.891C267.904 152.294 267.531 151.474 267.497 150.606L265.942 110.739C265.926 110.361 265.989 109.983 266.126 109.629C266.263 109.276 266.471 108.955 266.738 108.685C267.004 108.416 267.323 108.205 267.675 108.064C268.027 107.923 268.404 107.857 268.783 107.868L325.627 109.512C326.474 109.536 327.28 109.883 327.88 110.482C328.479 111.082 328.826 111.888 328.85 112.735L329.865 149.813C329.875 150.178 329.813 150.541 329.683 150.881C329.552 151.222 329.355 151.533 329.104 151.797C328.852 152.061 328.551 152.273 328.217 152.42C327.883 152.567 327.524 152.647 327.159 152.654Z" fill="#B880FF" stroke="#B880FF" stroke-width="1.2" stroke-linecap="round" stroke-linejoin="round"/>
<path d="M307.916 131.098C308.127 137.778 304.394 143.22 299.527 143.267C294.66 143.314 290.393 137.837 290.134 131.022C289.876 124.206 293.75 118.694 298.693 118.793C303.636 118.893 307.705 124.394 307.916 131.098Z" fill="white" stroke="white" stroke-width="1.2" stroke-linecap="round" stroke-linejoin="round"/>
<path d="M281.64 176.846L268.549 177.439L267.92 161.325L281.059 160.955L281.64 176.846Z" stroke="#B880FF" stroke-width="1.2" stroke-linecap="round" stroke-linejoin="round"/>
<path d="M294.372 176.265L281.639 176.846L281.058 160.955L293.838 160.591L294.372 176.265Z" stroke="#B880FF" stroke-width="1.2" stroke-linecap="round" stroke-linejoin="round"/>
<path d="M306.759 175.702L294.373 176.266L293.838 160.591L306.266 160.245L306.759 175.702Z" stroke="#B880FF" stroke-width="1.2" stroke-linecap="round" stroke-linejoin="round"/>
<path d="M318.811 175.156L306.759 175.702L306.266 160.245L318.359 159.898L318.811 175.156Z" stroke="#B880FF" stroke-width="1.2" stroke-linecap="round" stroke-linejoin="round"/>
<path d="M330.546 174.621L318.811 175.155L318.359 159.898L330.136 159.569L330.546 174.621Z" stroke="#B880FF" stroke-width="1.2" stroke-linecap="round" stroke-linejoin="round"/>
<path d="M330.546 174.621L318.811 175.155L318.359 159.898L330.136 159.569L330.546 174.621Z" stroke="#B880FF" stroke-width="1.2" stroke-linecap="round" stroke-linejoin="round"/>
<path d="M304.141 130.693L297.243 125.274C297.167 125.216 297.076 125.18 296.98 125.171C296.884 125.162 296.787 125.18 296.701 125.224C296.615 125.267 296.543 125.334 296.494 125.417C296.444 125.5 296.419 125.595 296.422 125.691L296.785 136.452C296.789 136.545 296.818 136.637 296.87 136.715C296.922 136.793 296.995 136.855 297.08 136.894C297.166 136.933 297.26 136.947 297.353 136.936C297.446 136.924 297.534 136.886 297.607 136.827L304.153 131.479C304.211 131.431 304.258 131.371 304.289 131.302C304.321 131.233 304.337 131.159 304.335 131.083C304.334 131.008 304.316 130.933 304.283 130.866C304.249 130.798 304.201 130.739 304.141 130.693Z" fill="#B880FF" stroke="#B880FF" stroke-width="1.2" stroke-linecap="round" stroke-linejoin="round"/>
<path d="M264.457 85.9892C264.527 87.7504 263.535 89.0712 262.238 89.0066C260.94 88.9421 259.825 87.4862 259.754 85.7485C259.684 84.0109 260.688 82.6548 261.991 82.7311C263.294 82.8074 264.392 84.2633 264.457 85.9892Z" stroke="black" stroke-width="1.2" stroke-linecap="round" stroke-linejoin="round"/>
<path d="M255.393 82.5552L251.143 88.273" stroke="black" stroke-width="1.2" stroke-linecap="round" stroke-linejoin="round"/>
<path d="M255.639 88.4902L250.896 82.3086" stroke="black" stroke-width="1.2" stroke-linecap="round" stroke-linejoin="round"/>
<path d="M93.3733 70.5383L91.8177 48.6531C91.4185 43.0233 95.1051 38.7907 100.036 39.2075L106.57 39.7652" stroke="white" stroke-width="1.2" stroke-linecap="round" stroke-linejoin="round"/>
</svg>
